<svg width="23" height="22" viewBox="0 0 23 22" fill="none" xmlns="http://www.w3.org/2000/svg">
<path fill-rule="evenodd" clip-rule="evenodd" d="M7.83594 0H16.0859C19.8823 0 22.9609 3.07862 22.9609 6.875V15.125C22.9609 18.9214 19.8823 22 16.0859 22H7.83594C4.03956 22 0.960938 18.9214 0.960938 15.125V6.875C0.960938 3.07862 4.03956 0 7.83594 0ZM16.0859 19.9375C18.7397 19.9375 20.8984 17.7787 20.8984 15.125V6.875C20.8984 4.22125 18.7397 2.0625 16.0859 2.0625H7.83594C5.18219 2.0625 3.02344 4.22125 3.02344 6.875V15.125C3.02344 17.7787 5.18219 19.9375 7.83594 19.9375H16.0859Z" fill="white"/>
<path fill-rule="evenodd" clip-rule="evenodd" d="M6.46094 11C6.46094 7.96263 8.92356 5.5 11.9609 5.5C14.9983 5.5 17.4609 7.96263 17.4609 11C17.4609 14.0374 14.9983 16.5 11.9609 16.5C8.92356 16.5 6.46094 14.0374 6.46094 11ZM8.52344 11C8.52344 12.8948 10.0662 14.4375 11.9609 14.4375C13.8557 14.4375 15.3984 12.8948 15.3984 11C15.3984 9.10388 13.8557 7.5625 11.9609 7.5625C10.0662 7.5625 8.52344 9.10388 8.52344 11Z" fill="white"/>
<circle cx="17.8735" cy="5.08737" r="0.732875" fill="white"/>
</svg>
